<svg width="18" height="18" viewBox="0 0 18 18" fill="none" xmlns="http://www.w3.org/2000/svg">
<path d="M4.89375 15.75C4.58125 15.75 4.31563 15.6406 4.09688 15.4219C3.87813 15.2031 3.76875 14.9375 3.76875 14.625V3.9375H3V2.8125H6.525V2.25H11.475V2.8125H15V3.9375H14.2313V14.625C14.2313 14.925 14.1187 15.1875 13.8937 15.4125C13.6687 15.6375 13.4063 15.75 13.1063 15.75H4.89375ZM13.1063 3.9375H4.89375V14.625H13.1063V3.9375ZM6.88125 13.0125H8.00625V5.53125H6.88125V13.0125ZM9.99375 13.0125H11.1187V5.53125H9.99375V13.0125ZM4.89375 3.9375V14.625V3.9375Z" fill="#707070"/>
</svg>
