<svg width="14" height="14" viewBox="0 0 14 14" fill="none" xmlns="http://www.w3.org/2000/svg">
<path d="M1.125 12.6188H1.95L10.2563 4.3125L9.4313 3.4875L1.125 11.7938V12.6188ZM12.6375 3.50625L10.2375 1.10625L11.025 0.31875C11.2375 0.10625 11.5 0 11.8125 0C12.125 0 12.3875 0.10625 12.6 0.31875L13.425 1.14375C13.6375 1.35625 13.7438 1.61875 13.7438 1.93125C13.7438 2.24375 13.6375 2.50625 13.425 2.71875L12.6375 3.50625ZM11.85 4.29375L2.4 13.7438H0V11.3438L9.45 1.89375L11.85 4.29375ZM9.8438 3.9L9.4313 3.4875L10.2563 4.3125L9.8438 3.9Z" fill="white"/>
</svg>
